Coordinates
version=1
nRows=12
nColumns=33
inDegrees=yes

Units are S.I. units (second, meters, Newtons, ...)
Angles are in degrees.

endheader
time	ground_thorax_rot_x	ground_thorax_rot_y	ground_thorax_rot_z	ground_thorax_tx	ground_thorax_ty	ground_thorax_tz	clav_prot_r	clav_elev_r	scapula_abduction_r	scapula_elevation_r	scapula_upward_rot_r	scapula_winging_r	shoulder_elv_r	plane_of_elev_r	axial_rot_r	elbow_flexion_r	pro_sup_r	wrist_flex_r	wrist_dev_r	clav_prot_l	clav_elev_l	scapula_abduction_l	scapula_elevation_l	scapula_upward_rot_l	scapula_winging_l	shoulder_elv_l	plane_of_elev_l	axial_rot_l	elbow_flexion_l	pro_sup_l	wrist_flex_l	wrist_dev_l
      1.97000000	      2.04349481	     -0.43218144	      2.62754682	     -0.16800876	      0.98461089	      0.00226554	     -6.25432791	      6.67277705	     -5.46278870	      8.96706522	     11.04180548	     -3.45406113	     40.43442261	    -41.87161257	     49.67754917	     72.78784414	    -10.39814353	     35.56144469	    -13.87161492	     -8.43204933	     -1.82304661	     13.14901544	     -6.74236889	     -6.13675946	     -3.05515501	     43.23103775	    -39.13729415	     -7.36307463	     78.42112414	     21.14499754	     -0.37496087	    -23.11584015
      1.98000000	      2.08154876	     -0.50872116	      2.58251483	     -0.16810447	      0.98439348	      0.00208715	     -6.33401453	      6.51683528	     -5.52991572	      8.81811081	     11.05919620	     -3.44554817	     40.45419005	    -41.87738223	     49.66790975	     72.73825640	    -10.29424907	     35.49131018	    -13.89915099	     -8.41528616	     -1.74459900	     13.16242449	     -6.83964451	     -6.19113169	     -3.05873150	     43.11168230	    -39.32543405	     -7.46261135	     78.11166784	     21.13577194	     -0.28325917	    -23.09725345
      1.99000000	      1.30097355	      0.08977284	      2.32126403	     -0.16740040	      0.98503700	      0.00137282	     -7.28828776	      4.84276572	     -6.63887664	      7.32286641	     10.95255774	     -3.17170405	     41.12185400	    -42.60625173	     50.32792433	     73.02725106	     -7.62744468	     34.05405107	    -14.57951854	     -8.65526082	     -0.91616844	     12.98017408	     -6.66161187	     -3.89634089	     -2.42679526	     42.19941344	    -39.53241798	     -8.85527552	     77.14298213	     20.72108034	      0.64197115	    -24.47553010
      2.00000000	      1.35592681	     -0.02914951	      2.40470948	     -0.16765639	      0.98510854	      0.00116671	     -7.26197815	      4.74745935	     -6.60922385	      7.27308485	     10.85641880	     -3.14708531	     41.17729371	    -42.44973428	     50.34397655	     72.87730378	     -7.48991664	     33.92983879	    -14.65553934	     -8.65783407	     -0.96101704	     13.01979417	     -6.67031144	     -4.01900873	     -2.46577395	     42.02235889	    -39.71491601	     -8.73644589	     76.72830778	     20.76370069	      0.58091132	    -24.53228553
      2.01000000	      1.40427857	     -0.10241306	      2.40337908	     -0.16778110	      0.98475269	      0.00089322	     -7.29121689	      4.66777972	     -6.62088244	      7.19495727	     10.87085199	     -3.14520600	     41.19584473	    -42.35544814	     50.24619517	     72.88328120	     -7.47282999	     33.90906502	    -14.69416613	     -8.62627526	     -0.95324114	     13.00639879	     -6.72232893	     -4.12578299	     -2.48559622	     41.92401011	    -39.81829355	     -8.82637243	     76.62402834	     20.79162776	      0.56220504	    -24.57377784
      2.02000000	      1.44411272	     -0.16807516	      2.43702494	     -0.16793747	      0.98456532	      0.00067575	     -7.32882592	      4.55368957	     -6.65359253	      7.09869874	     10.85125387	     -3.12856944	     41.19585356	    -42.24600412	     50.09070066	     72.87067309	     -7.45847021	     33.87953396	    -14.75944211	     -8.59331327	     -0.98811230	     12.97086029	     -6.72671569	     -4.21354322	     -2.50447371	     41.84472075	    -39.89795481	     -8.95208059	     76.44327562	     20.83294245	      0.51143889	    -24.63833288
      2.03000000	      1.45144152	     -0.17046742	      2.49825485	     -0.16809692	      0.98440283	      0.00043844	     -7.33904279	      4.47836577	     -6.66159851	      7.04042675	     10.82084380	     -3.11165129	     41.14024959	    -42.18326082	     50.04136763	     72.89637669	     -7.45390548	     33.87372067	    -14.78074643	     -8.58145929	     -1.04223948	     12.95685994	     -6.70319371	     -4.27860413	     -2.51933817	     41.75915578	    -39.88723383	     -9.03442679	     76.41808833	     20.84731539	      0.49128391	    -24.66877182
      2.04000000	      1.23134789	     -0.09436503	      2.53893291	     -0.16811406	      0.98472117	      0.00020748	     -7.12938666	      3.96002307	     -7.39485426	      7.41920983	      8.60492836	     -2.39901097	     42.14402860	    -40.91363630	     48.61642054	     73.15954449	     -6.05539477	     32.94276970	    -17.19609981	     -8.75598041	     -0.96910890	     13.01494695	     -6.47427225	     -3.56694873	     -2.36617168	     41.72395131	    -40.12110595	    -10.73372784	     75.76959038	     21.06283539	     -4.43136810	    -24.99999983
      2.05000000	      1.28562755	     -0.15202555	      2.53451204	     -0.16817561	      0.98455055	     -0.00017265	     -7.15353371	      3.86473783	     -7.37452300	      7.31501561	      8.64961486	     -2.40767922	     42.17042668	    -40.82681851	     48.53082708	     73.17571689	     -6.06537435	     32.93571149	    -17.21886124	     -8.70826363	     -1.03104029	     12.94290330	     -6.45217481	     -3.65275880	     -2.38047964	     41.58585450	    -40.01225837	    -10.89317376	     75.85559930	     21.06349637	     -4.44946659	    -24.99999983
      2.06000000	      1.32527337	     -0.00393980	      2.22395076	     -0.16822338	      0.98438858	     -0.00042758	     -7.27513879	      3.64129119	     -7.52610363	      7.12098210	      8.61796227	     -2.36138369	     42.17241431	    -40.76573866	     48.03981861	     73.41293264	     -6.13090886	     32.90058835	    -17.40646548	     -8.68761982	     -1.23771356	     12.80380044	     -6.22083543	     -3.56051434	     -2.36583353	     41.58105580	    -39.62259724	    -11.24951870	     75.87291670	     21.05020860	     -4.73750387	    -24.99999983
      2.07000000	      1.31063116	     -0.05962756	      2.35839462	     -0.16832908	      0.98439516	     -0.00072612	     -7.29229882	      3.58368638	     -7.53285337	      7.06466652	      8.62867997	     -2.36151047	     42.13999598	    -40.70734364	     47.99476314	     73.45670790	     -6.13483640	     32.90235439	    -17.41636815	     -8.67515490	     -1.29117655	     12.77652898	     -6.18309305	     -3.59061885	     -2.37600551	     41.51967614	    -39.56011679	    -11.31050046	     75.90375707	     21.05271355	     -4.75188063	    -24.99999983
      2.08000000	      1.22040133	      0.19508280	      2.14512442	     -0.16800858	      0.98462428	     -0.00103150	     -7.52379181	      3.24499806	     -7.99635826	      6.86779193	      8.32437594	     -2.18033536	     42.00901438	    -40.71344231	     46.92942968	     73.58419059	     -6.25939506	     32.66933111	    -17.86972562	     -8.65775080	     -1.43735833	     12.61391827	     -5.96071409	     -3.37951450	     -2.32373814	     41.72928451	    -39.28084498	    -12.15973552	     75.82506364	     21.08082539	     -5.74961175	    -24.99999983
